<?xml version="1.0" standalone="no"?>
<!DOCTYPE svg PUBLIC "-//W3C//DTD SVG 20010904//EN"
 "http://www.w3.org/TR/2001/REC-SVG-20010904/DTD/svg10.dtd">
<svg version="1.0" xmlns="http://www.w3.org/2000/svg"
 width="204.000000pt" height="211.000000pt" viewBox="0 0 204.000000 211.000000"
 preserveAspectRatio="xMidYMid meet">

<g transform="translate(0.000000,211.000000) scale(0.100000,-0.100000)"
fill="#8b5cf6" stroke="none">
<path d="M990 2074 c-6 -14 -10 -29 -10 -34 0 -5 -30 -11 -67 -15 -192 -19
-307 -47 -427 -105 -198 -96 -332 -243 -414 -457 -40 -103 -86 -344 -66 -342
5 0 29 25 53 56 32 40 59 63 99 80 99 46 236 20 325 -63 14 -13 31 -24 38 -24
6 0 30 17 54 38 63 55 128 75 228 70 80 -4 129 -21 170 -56 16 -14 17 -52 16
-536 0 -377 -3 -530 -12 -555 -16 -45 -54 -72 -109 -78 -77 -9 -135 36 -147
115 -5 28 -12 38 -29 40 -18 3 -22 -1 -22 -26 0 -66 65 -153 126 -168 45 -12
143 1 172 22 62 46 61 38 63 609 1 286 5 531 8 544 5 15 27 35 61 55 51 29 62
31 155 31 110 0 149 -13 214 -74 18 -17 37 -31 42 -31 5 0 32 18 61 40 66 50
124 70 203 70 75 0 153 -35 193 -87 15 -19 34 -45 44 -56 9 -12 18 -20 21 -17
9 9 -32 231 -55 300 -98 301 -321 501 -643 574 -33 8 -112 20 -175 26 -63 7
-118 14 -122 17 -5 2 -8 17 -8 34 0 37 -27 39 -40 3z"/>
</g>
</svg>
