<?xml version="1.0" standalone="no"?>
<!DOCTYPE svg PUBLIC "-//W3C//DTD SVG 20010904//EN"
 "http://www.w3.org/TR/2001/REC-SVG-20010904/DTD/svg10.dtd">
<svg version="1.0" xmlns="http://www.w3.org/2000/svg"
 width="465.000000pt" height="536.000000pt" viewBox="0 0 465.000000 536.000000"
 preserveAspectRatio="xMidYMid meet">

<g transform="translate(0.000000,536.000000) scale(0.100000,-0.100000)"
fill="#000000" stroke="none">
<path d="M2165 4153 c-206 -24 -409 -70 -520 -118 -16 -7 -59 -26 -95 -41
-193 -82 -414 -237 -585 -409 -268 -269 -456 -637 -521 -1020 -26 -153 -27
-475 -1 -630 19 -108 95 -375 122 -425 8 -14 30 -59 49 -100 163 -351 488
-680 850 -862 562 -282 1210 -275 1763 18 271 144 521 372 696 634 75 113 171
311 216 451 69 208 82 293 88 554 4 213 3 241 -21 375 -30 179 -88 354 -171
520 -107 216 -219 366 -403 541 -257 245 -577 410 -934 483 -150 30 -405 45
-533 29z m265 -113 c13 -9 11 -14 -13 -35 l-28 -25 25 -10 c49 -18 63 -96 25
-144 -26 -32 -86 -37 -113 -7 -42 47 -26 130 30 151 14 6 22 14 19 20 -6 10
22 60 34 60 3 0 13 -5 21 -10z m-200 -20 c0 -4 -6 -13 -14 -19 -17 -14 -31 2
-22 24 5 15 36 10 36 -5z m4 -81 c3 -17 6 -56 6 -85 0 -46 -3 -54 -19 -54 -15
0 -19 11 -24 76 -4 42 -4 80 -1 85 12 19 32 7 38 -22z m-125 12 c24 -16 6 -38
-27 -33 -41 6 -59 -26 -41 -70 12 -31 33 -34 82 -13 13 5 17 2 17 -14 0 -33
-58 -53 -105 -35 -19 8 -45 55 -45 83 0 64 71 113 119 82z m552 -21 c14 -16
15 -27 4 -85 -14 -75 -19 -83 -39 -66 -11 9 -12 20 -5 44 12 42 12 84 -1 92
-23 14 -49 -16 -57 -67 -7 -43 -12 -53 -28 -53 -17 0 -20 6 -17 35 1 19 7 56
13 82 l11 47 51 -6 c32 -3 58 -12 68 -23z m-988 -27 c3 -10 22 -57 42 -106 35
-82 40 -124 13 -115 -13 5 -97 194 -98 221 0 10 7 17 19 17 10 0 21 -8 24 -17z
m257 -54 c22 -73 20 -105 -5 -95 -8 3 -17 1 -21 -5 -11 -18 -54 -30 -74 -19
-18 10 -63 137 -54 152 17 27 41 -7 70 -99 5 -18 31 -16 42 3 6 11 5 35 -4 67
-14 53 -12 67 11 67 9 0 22 -27 35 -71z m1019 16 c44 -22 54 -71 26 -124 -16
-32 -33 -41 -76 -41 -40 0 -69 32 -69 76 0 45 13 70 48 88 34 19 37 19 71 1z
m161 -74 c0 -5 12 -12 27 -16 39 -9 53 -23 53 -51 0 -27 -57 -134 -71 -134
-23 0 -21 36 5 82 29 52 28 68 -7 68 -16 0 -30 -14 -49 -50 -28 -50 -41 -60
-54 -39 -11 19 57 149 78 149 10 0 18 -4 18 -9z m-1486 -53 c21 -29 20 -82 -1
-103 -47 -47 -104 -36 -138 27 -25 48 -13 86 34 110 30 15 37 15 62 3 15 -8
35 -25 43 -37z m1726 1 c0 -6 -8 -22 -19 -37 -10 -15 -38 -57 -62 -94 -27 -41
-51 -68 -61 -68 -28 0 -21 22 28 96 78 116 84 123 99 117 8 -3 15 -9 15 -14z
m-1953 -76 c3 -7 -7 -17 -20 -22 -48 -18 -39 -30 20 -28 54 2 58 1 67 -26 7
-19 7 -33 0 -45 -14 -22 -73 -52 -90 -45 -25 9 -15 29 21 42 19 7 35 19 35 27
0 17 -18 18 -56 4 -32 -12 -74 9 -74 38 1 47 84 94 97 55z m2043 -13 c0 -21
-24 -28 -35 -10 -8 14 3 30 21 30 8 0 14 -9 14 -20z m-1100 -15 c0 -14 3 -25
8 -25 4 0 65 -7 135 -15 184 -21 310 -55 479 -129 113 -49 323 -198 398 -283
190 -213 276 -416 287 -679 6 -148 -4 -176 -37 -101 -32 72 -93 133 -175 173
-67 33 -82 37 -155 37 -73 0 -88 -4 -155 -37 -54 -27 -88 -52 -121 -91 l-47
-54 -27 37 c-33 46 -84 86 -152 117 -43 20 -69 25 -138 25 -96 0 -160 -23
-237 -86 l-42 -35 -3 -677 c-3 -646 -4 -679 -22 -716 -24 -47 -74 -100 -119
-122 -17 -10 -61 -19 -98 -22 -76 -5 -131 14 -191 67 -37 32 -82 126 -76 158
4 23 58 25 68 3 46 -99 53 -109 100 -134 26 -14 62 -26 79 -26 40 0 98 24 129
53 53 49 52 40 52 747 l0 658 -49 44 c-67 61 -142 88 -241 88 -69 0 -85 -4
-149 -36 -49 -24 -85 -52 -116 -88 l-46 -53 -67 66 c-50 49 -84 72 -129 90
-172 66 -380 -22 -458 -194 -32 -70 -39 -45 -32 123 7 199 53 344 162 507 206
310 553 514 961 565 49 6 108 13 132 16 32 4 42 10 42 23 0 23 9 31 32 31 13
0 18 -7 18 -25z m1063 -27 c5 -16 -84 -137 -101 -138 -30 -1 -21 33 24 90 46
59 68 73 77 48z m94 -81 c4 -7 20 -20 36 -30 43 -28 37 -63 -22 -121 -45 -44
-71 -53 -71 -24 0 6 18 31 41 55 33 36 38 47 29 59 -20 23 -40 16 -79 -26 -26
-29 -42 -39 -54 -34 -26 10 -21 20 35 79 53 56 71 65 85 42z m-2263 -115 c28
-30 28 -52 0 -52 -8 0 -14 -5 -14 -10 0 -22 -48 -60 -67 -53 -30 10 -112 95
-106 109 9 23 27 16 68 -26 42 -43 59 -49 69 -24 10 26 7 32 -29 65 -33 30
-44 57 -29 72 8 7 65 -36 108 -81z m2441 -67 c29 -28 32 -61 9 -93 -21 -30
-36 -28 -68 13 -16 19 -32 32 -37 29 -19 -11 -8 -43 21 -64 17 -12 28 -26 25
-31 -21 -33 -95 24 -95 73 0 39 15 64 48 82 40 22 70 19 97 -9z m-2726 -14 c9
-6 22 -6 32 -1 21 12 44 -11 28 -27 -7 -7 0 -19 22 -37 25 -21 38 -26 60 -21
33 8 39 -8 12 -37 -22 -25 -33 -23 -82 13 -24 17 -49 28 -56 25 -16 -6 -38 17
-27 28 4 4 -1 12 -11 17 -20 11 -23 49 -4 49 6 0 19 -4 26 -9z m2786 -1864
c39 -21 80 -46 93 -54 l23 -14 -22 -30 -21 -30 -45 26 c-53 32 -63 28 -28 -9
42 -46 47 -61 26 -87 -19 -23 -19 -23 -72 -7 -29 10 -55 16 -57 14 -2 -2 15
-17 37 -32 45 -32 49 -43 24 -72 -18 -21 -19 -20 -113 55 -52 41 -96 81 -97
87 -2 6 8 24 21 39 l23 28 59 -17 c32 -9 66 -19 74 -22 8 -3 -6 19 -32 50 -27
31 -48 62 -48 68 0 7 9 25 21 41 23 33 13 35 134 -34z m-2653 -7 c41 -67 45
-101 15 -136 -20 -23 -33 -29 -65 -28 -38 1 -42 -1 -56 -36 -20 -50 -29 -54
-56 -25 l-24 25 22 45 c24 50 23 52 -20 28 -29 -18 -30 -18 -49 6 -11 13 -18
28 -17 33 5 15 192 136 208 135 8 -1 27 -22 42 -47z m138 -185 c49 -58 54 -72
28 -89 -14 -8 -24 -4 -52 23 -30 29 -36 32 -42 17 -4 -10 0 -24 10 -35 20 -22
20 -30 -1 -53 -16 -18 -17 -18 -45 9 -21 20 -31 24 -40 15 -8 -8 -4 -20 17
-48 l28 -36 -21 -20 c-22 -23 -12 -29 -96 61 l-39 42 24 24 c63 60 164 145
174 144 5 0 30 -24 55 -54z m2278 -40 c39 -16 75 -54 92 -100 14 -38 1 -84
-37 -121 -28 -28 -41 -34 -76 -34 -147 0 -202 191 -72 251 49 23 46 23 93 4z
m-2150 -93 c19 -9 42 -31 53 -48 l19 -31 -25 -23 -24 -23 -18 32 c-32 57 -83
51 -118 -13 -19 -34 -19 -35 0 -57 11 -12 30 -25 42 -30 20 -7 22 -11 11 -34
-13 -30 -33 -32 -72 -6 -39 26 -66 70 -66 107 0 60 81 144 139 144 14 0 41 -8
59 -18z m1958 -67 c4 -14 5 -27 3 -28 -2 -1 -17 -9 -34 -17 -43 -22 -45 -61
-6 -100 38 -38 55 -38 92 3 l30 32 19 -25 c18 -24 18 -25 -2 -52 -40 -58 -108
-73 -166 -38 -82 50 -98 169 -28 220 51 37 83 39 92 5z m-1831 -31 c14 -9 25
-21 25 -27 0 -6 -23 -44 -51 -85 -29 -41 -47 -77 -42 -81 58 -39 57 -38 39
-66 -10 -14 -20 -25 -24 -23 -32 14 -112 76 -112 86 0 12 129 212 137 212 2 0
15 -7 28 -16z m215 -129 c17 -9 30 -19 30 -23 0 -4 -7 -62 -15 -127 -8 -66
-15 -121 -15 -122 0 -2 -9 -3 -19 -3 -38 0 -51 11 -51 45 0 27 -5 35 -29 45
-24 10 -33 9 -54 -5 -24 -15 -50 -11 -76 12 -6 5 181 193 192 193 4 0 21 -7
37 -15z m1364 -17 c9 -12 16 -33 16 -46 0 -12 12 -33 27 -46 29 -26 36 -74 13
-101 -16 -19 -103 -65 -122 -65 -10 0 -86 145 -116 221 -5 13 99 57 135 58 22
1 37 -6 47 -21z m-200 -54 c12 -31 5 -41 -35 -57 -49 -19 -44 -42 7 -33 26 5
35 3 43 -13 16 -29 13 -41 -7 -41 -28 0 -54 -23 -47 -42 6 -15 10 -15 48 -2
38 14 43 13 54 -3 7 -9 13 -23 13 -29 0 -14 -133 -58 -153 -51 -10 3 -90 228
-82 235 4 4 136 51 146 51 4 1 10 -6 13 -15z m-984 -3 c23 -6 25 -12 30 -86
l5 -79 39 63 c38 62 39 63 74 57 19 -3 39 -9 43 -13 4 -4 -1 -53 -12 -108 -29
-154 -25 -146 -57 -139 -41 10 -44 17 -32 69 6 26 9 50 7 52 -3 2 -19 -19 -36
-47 -27 -43 -35 -50 -54 -45 -37 12 -48 34 -41 90 8 61 -9 52 -29 -16 -12 -38
-17 -44 -38 -41 -13 1 -27 6 -32 11 -4 4 11 60 34 124 43 122 44 123 99 108z
m1354 -33 c22 -31 20 -43 -9 -56 -34 -16 -32 -16 -49 17 -15 27 -14 30 7 44
29 21 33 21 51 -5z m-541 -15 c2 -5 -6 -64 -17 -133 l-21 -125 -36 -3 c-36 -3
-36 -3 -60 60 l-23 63 -9 -55 c-11 -75 -18 -85 -57 -85 -32 0 -33 1 -78 113
-29 70 -42 115 -36 121 5 5 22 11 38 13 27 3 30 -1 49 -57 16 -48 22 -56 28
-40 4 11 8 36 8 55 2 49 13 62 50 58 29 -3 35 -9 56 -58 l23 -55 7 62 c8 63
12 69 57 72 9 0 19 -2 21 -6z m-431 -23 c52 -15 78 -55 78 -120 0 -92 -43
-140 -126 -140 -39 0 -51 5 -80 34 -62 62 -45 189 29 221 39 17 52 18 99 5z"/>
<path d="M2361 3926 c-7 -8 -11 -30 -9 -48 2 -26 8 -34 27 -36 27 -4 41 12 41
49 0 43 -35 64 -59 35z"/>
<path d="M2884 3816 c-8 -14 -14 -35 -12 -48 2 -18 9 -23 33 -23 24 0 31 5 39
32 16 57 -29 86 -60 39z"/>
<path d="M1525 3730 c-15 -16 -16 -25 -7 -44 16 -35 45 -49 68 -32 15 12 17
19 9 41 -6 15 -19 34 -31 41 -18 13 -23 12 -39 -6z"/>
<path d="M3620 3321 c0 -12 29 -35 36 -28 11 10 -5 37 -21 37 -8 0 -15 -4 -15
-9z"/>
<path d="M1007 1402 c-16 -17 -16 -21 -2 -32 21 -17 47 -5 43 22 -4 29 -21 33
-41 10z"/>
<path d="M3418 1169 c-44 -25 6 -119 62 -119 59 0 66 48 14 96 -38 36 -49 39
-76 23z"/>
<path d="M1617 812 c-13 -14 -15 -22 -7 -27 16 -10 33 9 28 30 -3 16 -5 15
-21 -3z"/>
<path d="M2971 851 c-12 -8 -5 -41 8 -41 9 0 31 22 31 31 0 11 -26 18 -39 10z"/>
<path d="M3008 764 c-10 -9 3 -44 16 -44 18 0 35 21 29 36 -5 14 -34 19 -45 8z"/>
<path d="M2180 700 c-22 -22 -27 -78 -10 -111 14 -26 55 -24 74 3 24 34 21 94
-6 112 -29 20 -34 20 -58 -4z"/>
</g>
</svg>
